<?xml version="1.0" standalone="no"?>
<!DOCTYPE svg PUBLIC "-//W3C//DTD SVG 20010904//EN"
 "http://www.w3.org/TR/2001/REC-SVG-20010904/DTD/svg10.dtd">
<svg version="1.0" xmlns="http://www.w3.org/2000/svg"
 width="1200.000000pt" height="1755.000000pt" viewBox="0 0 1200.000000 1755.000000"
 preserveAspectRatio="xMidYMid meet">

<g transform="translate(0.000000,1755.000000) scale(0.100000,-0.100000)"
fill="#000000" stroke="none">
<path d="M4622 16028 c-156 -156 -340 -345 -410 -421 -187 -204 -248 -238
-427 -238 -75 0 -109 -4 -141 -19 -80 -35 -95 -114 -44 -230 63 -143 22 -268
-95 -287 -32 -5 -39 -1 -103 61 -38 36 -74 66 -80 66 -14 0 -235 -139 -314
-198 -57 -42 -79 -67 -117 -135 -42 -75 -38 -83 151 -318 220 -274 596 -724
1216 -1454 281 -330 316 -379 342 -468 54 -182 130 -281 274 -359 44 -24 81
-48 83 -54 3 -10 -146 -85 -435 -220 -131 -60 -135 -59 -216 60 -76 112 -101
126 -213 126 -200 0 -331 -69 -440 -233 -90 -135 -115 -249 -133 -627 -8 -177
-13 -210 -49 -351 l-39 -157 -6 -558 c-3 -308 -7 -784 -8 -1059 l-3 -500 33
-60 c87 -160 175 -202 278 -132 79 52 112 139 144 372 15 110 20 379 30 1525
7 799 11 999 23 1060 38 195 72 282 126 317 41 28 58 28 90 4 l25 -19 -26 -39
c-45 -69 -77 -139 -98 -219 -27 -105 -37 -426 -45 -1494 -8 -1066 -16 -1196
-81 -1361 -52 -129 -159 -260 -274 -334 -82 -52 -82 -52 -455 -174 -383 -126
-596 -203 -638 -233 -18 -12 -60 -46 -94 -75 -102 -85 -91 -83 -358 -83 l-235
0 0 -210 0 -210 3940 0 3940 0 0 205 0 205 -247 0 c-410 1 -837 11 -848 22
-13 12 -19 890 -10 1466 l7 432 42 0 c192 0 333 95 399 268 l22 57 3 1240 c3
1367 5 1308 -59 1442 -42 88 -126 176 -204 213 -170 81 -405 54 -549 -65 -48
-39 -87 -110 -106 -190 -23 -102 -62 -142 -122 -128 -64 16 -87 85 -91 273 -2
119 8 147 90 257 72 97 134 215 214 404 99 237 135 290 228 333 43 20 62 21
330 21 l283 0 39 43 c65 74 65 73 -32 432 -70 256 -174 599 -212 695 -17 44
-86 190 -154 325 -186 372 -298 541 -493 743 -130 136 -178 172 -380 287 -285
164 -412 210 -634 230 -131 12 -294 0 -368 -26 -138 -48 -272 -202 -294 -336
-6 -37 -8 -39 -178 -126 -404 -209 -680 -404 -872 -619 -83 -93 -94 -128 -46
-139 15 -3 32 -7 38 -9 9 -3 44 3 123 19 13 3 39 18 58 33 58 45 266 156 383
204 41 17 104 43 140 59 36 16 126 47 200 70 74 23 153 48 175 55 22 8 58 17
80 21 22 4 58 15 80 25 22 10 47 18 55 18 8 0 28 -26 44 -58 25 -50 28 -66 22
-107 -13 -98 -36 -146 -100 -210 -83 -82 -210 -144 -392 -189 -153 -39 -377
-130 -467 -189 -74 -49 -140 -124 -163 -183 -38 -97 -175 -361 -230 -443 -32
-47 -76 -114 -100 -149 -33 -48 -57 -106 -100 -240 -31 -97 -62 -189 -69 -204
l-12 -28 -83 121 c-82 119 -129 175 -320 375 -52 55 -123 139 -156 185 -129
179 -344 582 -344 644 0 109 -57 272 -144 412 l-25 41 409 416 c363 368 410
419 410 447 0 55 -48 120 -89 120 -8 0 -143 -127 -299 -282z m2489 142 c54
-28 143 -105 169 -146 11 -17 27 -61 35 -99 14 -57 14 -85 5 -174 -11 -112
-31 -194 -54 -220 -7 -9 -35 -52 -62 -96 -26 -44 -76 -117 -111 -163 -34 -46
-66 -94 -69 -108 -11 -43 5 -90 46 -137 22 -25 58 -69 80 -98 39 -52 40 -56
40 -134 0 -123 -34 -165 -134 -165 -47 0 -67 16 -83 65 -7 22 -23 36 -63 56
-56 28 -75 27 -125 -3 -16 -10 -45 -18 -64 -18 -30 0 -46 12 -128 95 -51 53
-93 97 -93 99 0 1 17 8 38 14 21 6 53 26 72 43 19 17 60 43 90 59 66 34 167
130 177 168 3 15 14 38 24 52 55 79 64 323 14 420 -43 85 -90 142 -162 197
-87 66 -100 90 -77 136 31 59 124 140 189 165 77 28 180 25 246 -8z m386 -11
c123 -39 259 -107 399 -200 133 -89 336 -287 445 -434 144 -194 302 -480 397
-720 96 -241 252 -768 277 -932 5 -34 3 -42 -12 -46 -24 -8 -493 -30 -499 -25
-5 6 43 160 98 313 42 118 43 122 43 251 l0 131 -52 105 c-59 119 -117 190
-201 243 -31 20 -78 60 -103 87 l-46 50 -94 8 c-52 5 -191 11 -310 14 -190 5
-219 4 -230 -10 -12 -15 -25 -448 -28 -981 l-1 -113 -119 0 -119 0 -6 123 c-3
67 -10 291 -15 497 -8 263 -15 391 -25 430 -14 54 -22 64 -110 137 -47 39 -43
47 131 323 100 158 145 298 147 460 1 99 -16 140 -93 224 -25 28 -57 64 -71
80 l-25 29 62 -7 c34 -4 106 -21 160 -37z m-3472 -849 c161 -95 208 -186 230
-441 6 -73 9 -80 52 -130 56 -65 79 -116 88 -189 6 -53 5 -58 -36 -118 -28
-43 -54 -69 -78 -80 -20 -9 -49 -27 -64 -39 -44 -36 -86 -30 -143 18 -64 54
-114 75 -263 110 -149 36 -176 47 -225 89 -35 31 -37 35 -30 79 10 77 14 78
244 77 l202 -2 23 28 c29 34 39 77 30 133 -5 36 -17 55 -73 112 -46 47 -79 93
-104 145 l-37 75 -111 22 c-62 11 -116 24 -121 27 -14 8 -10 57 6 82 24 33 68
41 216 39 135 -2 136 -2 194 -37z m2277 -632 c57 -85 98 -185 98 -238 0 -28
-9 -52 -31 -82 -17 -24 -67 -96 -111 -161 -55 -80 -88 -119 -104 -123 -32 -8
-127 55 -112 74 8 9 5 12 -10 12 -12 0 -23 -4 -26 -9 -8 -12 -123 50 -201 108
-34 25 -70 51 -80 56 -17 10 -17 14 -1 88 24 108 86 227 151 291 59 57 149
110 235 137 l55 17 45 -50 c25 -28 66 -82 92 -120z m1748 152 c23 -23 24 -29
10 -64 -13 -34 -102 -146 -116 -146 -6 0 -19 -9 -30 -21 -35 -39 -177 -98
-208 -86 -14 5 -16 30 -16 166 l0 160 133 4 c72 1 149 4 170 5 26 1 43 -4 57
-18z m-4740 -92 c62 -81 196 -249 281 -351 41 -51 90 -114 109 -142 19 -27 59
-80 89 -116 31 -36 72 -87 91 -112 92 -121 206 -264 316 -397 66 -80 146 -180
177 -222 32 -43 73 -89 92 -104 19 -14 35 -31 35 -36 0 -5 23 -35 51 -66 28
-32 54 -66 59 -77 4 -11 27 -43 52 -70 24 -28 84 -99 134 -160 162 -198 163
-200 122 -252 -26 -31 -35 -45 -79 -120 -18 -31 -38 -53 -48 -53 -10 0 -39 31
-68 73 -28 39 -104 135 -168 212 -174 207 -434 522 -655 791 -107 130 -209
254 -225 273 -59 69 -135 171 -135 180 0 6 -8 16 -17 23 -10 7 -36 36 -58 63
-21 28 -69 82 -106 120 -36 39 -82 95 -102 127 -19 31 -64 87 -100 125 -71 76
-137 165 -137 187 0 16 48 66 65 66 6 0 43 20 81 45 38 24 77 45 86 45 10 0
36 -24 58 -52z m5173 -77 c18 -16 46 -54 63 -83 26 -48 29 -61 28 -143 -1
-109 -30 -227 -84 -342 -83 -177 -130 -215 -263 -212 l-82 2 -60 50 c-75 63
-85 75 -85 103 0 12 -11 29 -25 38 -57 37 -12 138 88 196 77 45 121 96 181
211 58 110 83 143 139 180 54 35 59 35 100 0z m-1605 -37 c33 -23 29 -80 -39
-561 l-23 -163 -138 0 c-85 0 -138 4 -138 10 0 5 34 144 75 307 l75 298 56 53
c48 46 82 69 104 71 3 1 16 -6 28 -15z m350 -106 c20 -20 15 -76 -9 -89 -30
-15 -195 -2 -214 18 -15 15 -20 64 -8 76 12 13 218 8 231 -5z m-2738 -181 c15
-27 15 -27 -59 -96 -57 -53 -90 -75 -140 -93 -51 -19 -70 -22 -88 -14 -45 21
-14 86 48 101 15 4 62 35 105 70 46 37 87 63 99 62 10 -1 26 -14 35 -30z
m1958 -53 c17 -11 22 -25 22 -57 0 -49 -40 -245 -70 -348 -12 -39 -19 -80 -17
-91 3 -11 -5 -35 -19 -55 -13 -20 -24 -42 -24 -49 0 -29 -17 -12 -43 44 -46
99 -60 254 -31 353 20 67 100 198 128 209 29 12 29 12 54 -6z m-2254 -304 c98
-160 181 -301 184 -313 3 -12 18 -38 34 -57 15 -19 28 -41 28 -49 0 -20 -57
35 -66 63 -4 12 -26 41 -50 66 -23 25 -84 99 -135 165 -50 66 -111 141 -135
167 -24 26 -44 51 -44 57 0 5 -25 40 -55 77 -31 37 -54 69 -51 71 4 4 98 42
106 43 3 0 86 -131 184 -290z m1521 220 c3 -5 82 -51 176 -101 93 -50 176
-101 184 -113 22 -31 19 -109 -4 -130 -16 -15 -22 -15 -40 -4 -12 7 -21 16
-21 20 0 5 -7 8 -16 8 -22 0 -197 104 -267 159 -69 53 -89 85 -75 120 17 46
48 66 63 41z m-1101 -79 c35 -18 51 -32 45 -38 -11 -11 53 -73 75 -73 7 0 27
-13 43 -29 17 -15 34 -30 39 -32 30 -13 175 -189 268 -325 129 -188 143 -204
172 -204 41 0 111 98 139 195 27 94 36 113 52 119 25 10 403 -203 403 -227 0
-5 -8 -21 -18 -35 -10 -15 -30 -52 -45 -82 -32 -66 -306 -458 -377 -540 -74
-86 -89 -86 -197 -9 -47 35 -110 87 -138 117 -66 69 -81 84 -130 130 -45 43
-145 165 -267 326 -46 60 -111 143 -145 186 -82 103 -155 215 -177 275 -11 27
-30 64 -43 83 -12 19 -23 39 -23 43 0 13 72 56 174 105 50 24 92 44 94 44 1 0
27 -13 56 -29z m2613 -103 c4 -7 10 -97 13 -200 6 -243 -3 -232 184 -236 152
-4 152 -4 136 -79 -15 -67 -34 -97 -102 -164 -77 -74 -192 -135 -275 -144
-200 -22 -277 -47 -368 -124 -90 -75 -167 -99 -211 -67 -17 13 -19 25 -16 126
l2 111 -59 62 c-70 74 -101 131 -108 202 -5 52 -5 52 27 64 18 6 90 11 159 11
157 0 198 7 216 34 8 13 18 80 25 176 6 85 13 172 17 192 l5 37 62 4 c161 9
285 7 293 -5z m-1487 -195 c102 -52 195 -104 208 -116 26 -24 31 -94 7 -103
-34 -13 -485 245 -485 278 0 5 5 18 11 29 16 31 51 19 259 -88z m1060 -33 c0
-10 -3 -32 -6 -49 l-6 -31 -137 0 c-75 0 -142 4 -149 9 -17 10 -6 57 18 74 12
8 62 13 149 13 118 1 131 -1 131 -16z m770 1 c33 -63 -9 -96 -112 -89 -67 5
-75 8 -100 39 -44 53 -23 64 129 67 62 2 74 -1 83 -17z m268 -168 c37 -14 109
-48 160 -75 59 -30 105 -48 127 -48 37 0 43 -8 23 -28 -17 -17 -84 -15 -148 4
-59 17 -265 117 -274 133 -10 16 5 41 26 41 11 0 50 -12 86 -27z m-1492 -190
c62 -98 129 -209 150 -247 43 -80 74 -206 74 -309 l0 -68 -52 -23 c-54 -24
-161 -59 -211 -70 -35 -8 -34 -12 45 -170 64 -127 63 -120 6 -151 l-27 -15
-51 133 c-58 148 -64 157 -93 157 -27 0 -107 -48 -107 -64 0 -7 18 -63 40
-125 45 -125 46 -131 26 -131 -8 0 -36 41 -62 90 -67 127 -69 128 -152 107
-100 -26 -126 -22 -227 28 -101 50 -113 52 -296 40 -143 -9 -180 -1 -235 47
-36 32 -90 115 -81 124 2 3 81 -14 175 -37 235 -59 229 -61 416 150 161 181
275 328 391 504 103 155 142 207 154 207 4 0 56 -80 117 -177z m1424 -9 c63
-39 152 -58 258 -56 49 1 52 0 52 -23 0 -30 -34 -121 -88 -235 -47 -99 -144
-217 -260 -316 -119 -102 -149 -114 -284 -114 -181 0 -294 -34 -412 -125 -61
-46 -69 -50 -201 -81 -123 -29 -290 -43 -322 -26 -11 6 -30 37 -42 71 -12 33
-42 87 -67 121 -25 34 -44 63 -42 64 2 1 26 11 53 21 28 10 79 33 115 51 36
18 101 44 145 59 92 31 162 69 250 136 102 78 219 119 342 119 55 0 75 5 122
32 135 76 172 115 216 227 49 126 69 135 165 75z m-2090 -878 c50 -30 89 -46
126 -51 36 -4 54 -11 58 -23 3 -9 16 -30 28 -45 19 -23 23 -40 22 -90 -1 -58
-3 -63 -40 -95 -55 -47 -135 -82 -314 -138 -135 -42 -166 -48 -245 -48 -83 -1
-90 1 -93 19 -2 12 13 41 33 67 29 39 35 55 35 97 0 39 5 55 22 71 12 11 27
20 34 20 16 0 44 39 44 60 -1 37 -18 45 -117 51 -103 6 -135 18 -152 55 -12
27 -1 39 46 48 17 4 34 13 36 20 4 10 23 12 74 9 37 -2 93 0 123 5 30 5 89 10
130 11 73 1 79 -1 150 -43z m2196 -325 c55 -25 79 -59 109 -153 77 -245 71
-446 -20 -633 -49 -101 -118 -186 -176 -215 -37 -20 -66 -20 -1348 -20 -720 0
-1312 4 -1315 8 -7 11 66 80 124 119 71 47 569 351 734 447 239 140 266 152
401 176 66 12 188 38 270 60 158 40 921 195 1105 223 52 9 76 6 116 -12z
m-1868 -269 c8 -6 -73 -62 -240 -167 -139 -87 -345 -219 -457 -292 -112 -74
-217 -141 -234 -150 -42 -21 -108 -18 -159 8 -89 46 -451 279 -463 299 -5 8
107 65 221 111 85 34 120 42 329 73 88 13 228 36 310 50 300 53 660 88 693 68z
m-1769 -117 c24 -23 23 -193 -1 -208 -13 -9 -25 -3 -62 31 -26 24 -58 47 -72
52 -41 16 -105 11 -151 -11 -49 -24 -164 -144 -195 -204 -30 -57 -34 -151 -13
-311 21 -163 21 -164 -80 -164 -91 0 -100 13 -91 132 16 209 48 333 126 494
39 81 58 108 92 133 23 17 47 31 54 31 7 0 33 9 59 20 90 39 297 42 334 5z
m105 -348 c17 -13 16 -16 -19 -63 -57 -73 -111 -197 -125 -284 -6 -41 -16
-100 -22 -130 -44 -220 -47 -665 -8 -1075 5 -55 15 -271 21 -480 21 -668 -11
-1002 -118 -1222 -38 -79 -160 -224 -209 -249 -15 -8 -53 -30 -85 -50 -169
-102 -514 -221 -769 -264 -109 -18 -355 -49 -359 -44 -8 7 34 46 69 64 63 32
315 109 570 175 253 65 316 89 404 153 161 118 282 376 315 675 7 61 11 408
11 944 1 1038 10 1376 39 1521 39 186 91 289 164 322 49 23 96 25 121 7z m265
-102 c61 -21 124 -68 211 -157 74 -76 78 -81 89 -146 7 -37 17 -87 22 -112 5
-25 12 -169 16 -320 10 -522 -52 -990 -261 -1945 -47 -215 -66 -368 -66 -534
0 -153 11 -204 64 -311 71 -141 70 -180 -10 -269 -80 -89 -25 -83 -722 -75
-339 3 -643 9 -675 13 l-58 6 103 44 c173 75 495 227 576 273 192 109 290 255
357 530 49 200 58 303 52 595 -2 147 -10 349 -16 448 -10 164 -28 740 -36
1190 -5 275 30 463 117 627 40 76 96 134 140 147 46 13 50 13 97 -4z m-861
-549 c39 -20 71 -58 82 -97 7 -22 7 -222 0 -579 -6 -300 -14 -802 -19 -1116
-7 -531 -9 -574 -27 -610 -53 -108 -211 -115 -274 -12 -18 30 -20 51 -20 253
0 310 29 1947 36 2022 6 68 26 102 78 134 37 22 106 25 144 5z m4589 -138 c-3
-8 -6 -5 -6 6 -1 11 2 17 5 13 3 -3 4 -12 1 -19z m3 -288 c0 -22 -3 -40 -8
-40 -4 0 -6 18 -4 40 2 22 6 40 8 40 2 0 4 -18 4 -40z m-1623 -36 c-3 -3 -12
-4 -19 -1 -8 3 -5 6 6 6 11 1 17 -2 13 -5z m551 -1 c-65 -2 -171 -2 -235 0
-65 1 -12 3 117 3 129 0 182 -2 118 -3z m349 1 c-3 -3 -12 -4 -19 -1 -8 3 -5
6 6 6 11 1 17 -2 13 -5z m-2494 -1481 c-2 -720 -5 -1327 -9 -1350 -4 -34 -10
-44 -27 -47 -68 -14 -105 -16 -187 -10 -105 8 -109 14 -55 83 50 63 55 103 20
166 -56 101 -65 121 -75 174 -15 80 -12 279 6 400 19 130 38 212 104 451 32
118 55 223 61 290 6 58 15 113 20 122 5 10 16 69 24 130 8 62 24 181 35 263
11 83 25 245 30 360 10 237 15 275 39 275 15 0 16 -106 14 -1307z m3217 1017
l0 -190 -975 0 -975 0 0 -1130 0 -1130 -147 0 -146 0 6 278 c4 152 7 746 7
1320 l0 1042 1115 0 1115 0 0 -190z m-2 -392 l-3 -33 -810 -3 -810 -2 -17 -23
c-16 -20 -18 -86 -18 -948 0 -509 -3 -954 -6 -988 -7 -59 -8 -61 -35 -61 l-29
0 0 998 c0 960 1 998 19 1026 10 15 32 37 47 47 28 18 63 19 847 19 l818 0 -3
-32z m2 -1173 l0 -895 -707 2 -708 3 -3 893 -2 892 710 0 710 0 0 -895z"/>
<path d="M6926 16014 c-56 -56 -18 -144 62 -144 52 0 82 32 82 87 0 33 -6 46
-26 62 -37 29 -85 27 -118 -5z"/>
<path d="M10155 4604 c-37 -345 -66 -491 -128 -634 -39 -90 -42 -90 73 10 41
36 96 82 121 102 64 51 79 87 79 192 0 159 -39 292 -104 355 l-34 33 -7 -58z"/>
<path d="M1807 4556 c-15 -15 -21 -75 -33 -297 l-7 -125 144 -12 c188 -16 179
-5 179 -207 0 -126 3 -156 16 -169 13 -13 45 -16 189 -16 170 0 175 1 189 23
11 16 15 66 18 195 4 212 7 206 -131 215 -50 3 -103 12 -118 19 -31 15 -33 28
-48 281 l-7 107 -188 0 c-150 0 -192 -3 -203 -14z"/>
<path d="M11375 4363 c-32 -52 -129 -153 -185 -195 -19 -15 -120 -72 -225
-128 -104 -56 -219 -123 -255 -150 -164 -122 -301 -317 -335 -478 -30 -141
-15 -253 65 -481 27 -78 45 -141 39 -141 -22 0 -123 74 -329 241 -330 267
-496 399 -600 476 -141 104 -339 233 -361 234 -78 5 -87 2 -100 -41 -10 -32
-9 -51 5 -106 34 -139 102 -214 323 -360 224 -147 501 -363 813 -634 319 -278
384 -316 566 -335 38 -4 75 -12 82 -18 7 -5 28 -42 46 -81 32 -69 89 -137 103
-123 4 4 -4 47 -16 96 -30 115 -26 127 91 267 172 205 263 376 304 574 20 97
24 289 10 500 -11 173 -2 206 115 450 49 102 89 197 89 211 0 18 -31 63 -101
147 -56 67 -104 122 -108 122 -3 0 -19 -21 -36 -47z m-251 -760 c4 -16 9 -112
13 -214 5 -153 3 -199 -11 -261 -22 -98 -74 -206 -125 -257 -54 -54 -171 -131
-198 -131 -41 0 -89 54 -108 122 -27 95 -32 252 -10 323 39 122 148 248 325
376 52 38 98 69 101 69 4 0 10 -12 13 -27z"/>
<path d="M1785 3899 c-100 -31 -263 -51 -500 -59 -267 -9 -333 -19 -433 -67
-69 -32 -137 -99 -164 -161 -28 -63 -28 -158 2 -235 32 -85 128 -184 217 -225
74 -34 212 -62 305 -62 83 0 394 46 471 70 115 36 185 103 212 205 16 62 20
354 6 480 l-6 60 -40 2 c-22 1 -53 -3 -70 -8z m-375 -192 c86 -45 110 -141 71
-281 -29 -104 -89 -150 -159 -120 -38 16 -125 95 -151 138 -45 75 -34 163 29
226 62 62 138 75 210 37z"/>
<path d="M11742 3752 l-124 -3 6 -127 c4 -70 9 -157 12 -194 l6 -68 153 0
c130 0 156 3 170 17 15 15 16 35 10 187 -4 94 -12 177 -18 184 -6 7 -27 11
-51 10 -23 -2 -97 -4 -164 -6z"/>
<path d="M107 3468 c-39 -53 -44 -67 -76 -222 -66 -315 -23 -516 148 -687 128
-128 256 -177 486 -186 141 -5 242 4 575 53 l114 17 218 -224 c228 -235 242
-252 368 -444 43 -66 118 -169 167 -230 l89 -110 56 2 c30 2 96 14 144 28 232
66 362 177 461 393 108 235 121 521 42 900 -25 117 -45 152 -90 152 -48 0
-164 -85 -309 -227 -102 -100 -153 -124 -272 -128 -103 -4 -122 -9 -192 -53
-62 -40 -98 -47 -152 -32 -102 29 -166 127 -167 257 0 67 3 80 48 168 33 66
45 99 38 106 -17 17 -127 23 -180 10 -142 -36 -247 -127 -323 -281 -48 -95
-64 -110 -121 -110 -67 0 -319 37 -413 61 -235 60 -412 171 -514 323 -73 109
-94 182 -101 348 -4 75 -9 140 -13 143 -3 3 -17 -9 -31 -27z m2202 -1064 c70
-20 101 -52 101 -101 0 -72 -91 -193 -144 -193 -12 0 -32 10 -44 23 -30 32
-73 141 -79 203 -5 45 -3 53 18 68 30 20 80 20 148 0z m244 -466 c17 -9 21
-24 17 -63 -2 -28 -41 -135 -49 -134 -6 0 -92 101 -118 139 -12 18 -10 22 29
50 43 31 73 33 121 8z"/>
<path d="M3998 2818 c-158 -79 -237 -152 -263 -244 -42 -148 -275 -537 -653
-1091 -132 -193 -157 -256 -150 -382 8 -139 75 -244 226 -358 189 -143 406
-218 684 -239 110 -8 109 -7 229 -112 98 -84 199 -140 324 -178 81 -25 106
-27 250 -28 142 -1 167 2 226 22 82 28 147 69 202 126 126 130 236 428 278
746 30 232 36 262 61 287 13 12 79 56 148 98 186 113 216 153 167 226 -24 35
-235 231 -325 301 l-53 41 -23 -24 c-77 -80 -206 -234 -206 -247 0 -8 14 -58
31 -111 l30 -97 -31 -155 c-40 -193 -177 -775 -191 -811 -6 -14 -23 -31 -37
-37 -53 -21 -158 -41 -219 -41 -54 0 -67 4 -93 28 -39 34 -50 94 -26 139 8 17
49 69 90 116 136 156 176 233 176 335 -1 145 -99 222 -283 222 -124 0 -241
-38 -357 -115 -81 -54 -214 -190 -300 -308 l-65 -89 -66 5 c-97 6 -153 40
-287 174 -190 191 -204 234 -136 407 105 262 246 491 504 816 158 200 202 282
250 468 33 128 39 172 24 172 -7 0 -68 -28 -136 -62z m440 -1799 c50 -25 99
-85 108 -135 8 -44 -20 -102 -66 -132 -68 -46 -161 -9 -245 100 -69 88 -63
121 29 164 63 30 117 30 174 3z"/>
<path d="M9739 2660 c-43 -23 -111 -95 -137 -147 -79 -155 -88 -401 -27 -755
30 -175 25 -212 -36 -282 -66 -74 -168 -97 -222 -49 -37 33 -47 76 -47 205 0
151 -11 192 -61 240 -74 70 -187 72 -372 7 -301 -107 -346 -157 -355 -402 -5
-145 6 -202 47 -240 38 -35 49 -36 113 -10 37 15 78 23 114 23 50 0 59 -3 90
-34 50 -50 47 -83 -13 -148 -67 -71 -199 -155 -412 -261 -174 -87 -187 -92
-257 -95 -65 -4 -81 -1 -132 24 -173 83 -347 361 -487 775 -60 176 -74 209
-106 242 -20 20 -43 37 -51 37 -31 0 -57 -46 -73 -125 -21 -111 -19 -153 11
-234 18 -47 24 -80 20 -97 -11 -43 -67 -92 -112 -98 -199 -29 -292 -94 -364
-251 -15 -33 -35 -96 -45 -140 -25 -121 -34 -143 -82 -213 -24 -36 -43 -72
-41 -81 3 -14 27 -17 173 -22 163 -5 175 -7 277 -42 173 -60 190 -55 334 99
120 128 140 124 261 -59 152 -230 348 -295 601 -197 209 81 431 256 654 516
63 73 101 108 134 125 46 22 50 22 133 8 127 -21 235 -17 295 10 150 66 190
147 207 411 6 91 14 168 18 172 4 4 65 25 137 47 177 53 274 95 327 141 68 60
71 72 64 302 -5 199 -5 200 -36 263 -62 125 -240 283 -376 334 -68 26 -119 26
-166 1z m205 -490 c31 -11 33 -33 6 -60 -25 -25 -109 -28 -145 -4 -33 21 -31
30 8 54 35 22 90 26 131 10z m-2468 -1110 c23 -35 26 -47 21 -91 -4 -28 -13
-62 -21 -74 -31 -47 -121 -40 -145 11 -15 34 -14 42 13 101 48 101 89 118 132
53z"/>
<path d="M7124 2489 c-52 -121 -72 -159 -84 -155 -8 2 -78 27 -154 56 -76 28
-142 47 -146 43 -11 -12 -150 -360 -150 -375 1 -11 310 -150 368 -165 15 -3
24 7 42 49 84 196 114 258 123 258 7 0 76 -25 155 -56 79 -31 146 -54 149 -51
9 9 143 366 143 380 0 12 -131 73 -346 163 l-31 13 -69 -160z"/>
<path d="M8508 2572 c-20 -22 -47 -72 -63 -113 -69 -185 -193 -392 -334 -561
-74 -88 -109 -144 -97 -155 3 -3 19 -2 36 2 39 9 122 78 264 220 170 169 245
296 281 473 l16 83 -28 44 c-15 25 -31 45 -34 45 -4 0 -22 -17 -41 -38z"/>
<path d="M4245 2240 c-76 -26 -247 -99 -272 -116 -13 -8 -23 -22 -23 -32 1
-29 166 -316 194 -337 27 -19 27 -19 114 3 48 12 104 22 124 22 43 0 55 -14
88 -103 26 -70 64 -117 94 -117 22 0 323 103 334 115 9 9 -88 293 -110 320
-24 30 -63 32 -168 9 -69 -16 -73 -16 -98 3 -15 11 -49 53 -77 95 -100 151
-121 165 -200 138z"/>
<path d="M5985 1969 c-55 -60 -111 -124 -124 -142 l-23 -32 6 -280 c4 -154 11
-379 16 -501 5 -121 14 -377 21 -570 6 -192 15 -353 20 -358 5 -5 35 18 71 55
74 75 125 172 160 299 21 79 23 104 23 360 0 248 -7 470 -20 680 -3 41 -9 161
-15 265 -13 254 -20 335 -28 334 -4 0 -52 -50 -107 -110z"/>
</g>
</svg>
